<svg width="16" height="16" viewBox="0 0 16 16" fill="none" xmlns="http://www.w3.org/2000/svg">
<path opacity="0.1" d="M8.00615 14.9001C6.11905 14.8139 4.32435 14.0604 2.94344 12.7747C1.42532 11.448 0.52002 9.82265 0.52002 8.43346C0.52002 5.34947 4.44066 1.9668 8.00615 1.9668C11.5716 1.9668 15.4923 5.43976 15.4923 8.43346C15.4923 11.573 11.6413 14.9001 8.00615 14.9001Z" fill="#99A1B7"/>
<path d="M9.47632 8.43083C9.48321 8.35438 9.48321 8.27747 9.47632 8.20102C9.45625 8.0636 9.49099 7.92379 9.57307 7.81176C9.65514 7.69972 9.77796 7.62444 9.91504 7.60214C9.98241 7.59026 10.0515 7.59211 10.1181 7.60756C10.1848 7.62301 10.2476 7.65175 10.3029 7.69207C10.3581 7.73238 10.4047 7.78343 10.4398 7.84217C10.4748 7.90091 10.4977 7.96612 10.507 8.03389C10.5173 8.166 10.5173 8.29872 10.507 8.43083C10.507 8.76005 10.4421 9.08604 10.3161 9.3902C10.1901 9.69436 10.0055 9.97073 9.77269 10.2035C9.5399 10.4363 9.26353 10.621 8.95937 10.747C8.65521 10.8729 8.32922 10.9378 8 10.9378H7.72145C7.58387 10.9221 7.45816 10.8523 7.37197 10.744C7.28579 10.6356 7.24617 10.4974 7.26184 10.3598C7.26877 10.292 7.28909 10.2262 7.32163 10.1663C7.35416 10.1064 7.39827 10.0535 7.45138 10.0108C7.50449 9.968 7.56556 9.93622 7.63104 9.91724C7.69653 9.89826 7.76513 9.89246 7.83287 9.90019C8.03972 9.92376 8.24922 9.90331 8.44761 9.84019C8.646 9.77707 8.82879 9.6727 8.984 9.53394C9.1392 9.39518 9.2633 9.22516 9.34815 9.03504C9.433 8.84493 9.47668 8.63902 9.47632 8.43083ZM14.0655 5.06732C14.0197 5.01474 13.9641 4.97167 13.9017 4.94059C13.8394 4.90951 13.7715 4.89101 13.702 4.88616C13.6325 4.88131 13.5627 4.8902 13.4966 4.91233C13.4305 4.93445 13.3694 4.96937 13.3169 5.01509C13.2107 5.10744 13.1455 5.23819 13.1357 5.37858C13.1308 5.44809 13.1397 5.51788 13.1619 5.58396C13.184 5.65004 13.2189 5.71111 13.2646 5.7637C13.9556 6.50105 14.3755 7.45133 14.4554 8.45868C14.4554 10.8333 11.3287 13.8974 8.01393 13.8974C7.11339 13.8635 6.23234 13.6254 5.43733 13.201C5.37568 13.1663 5.30761 13.1444 5.23726 13.1368C5.16691 13.1292 5.09575 13.1359 5.02808 13.1566C4.96042 13.1773 4.89767 13.2116 4.84365 13.2573C4.78962 13.303 4.74544 13.3592 4.7138 13.4225C4.68215 13.4858 4.6637 13.5548 4.65955 13.6255C4.65541 13.6961 4.66567 13.7669 4.6897 13.8334C4.71373 13.9 4.75103 13.9609 4.79934 14.0126C4.84766 14.0644 4.90597 14.1057 4.97075 14.1342C5.91249 14.6226 6.95337 14.8893 8.01393 14.9141C11.649 14.9141 15.5 11.5854 15.5 8.43083C15.4227 7.1781 14.916 5.99026 14.0655 5.06732ZM14.7618 2.052L2.02507 14.7052C1.92936 14.8021 1.79916 14.8572 1.66295 14.8584C1.52265 14.8572 1.38813 14.8024 1.28691 14.7052C1.18867 14.6061 1.13356 14.4722 1.13356 14.3326C1.13356 14.1931 1.18867 14.0592 1.28691 13.9601L2.67967 12.5673C1.28691 11.286 0.5 9.7818 0.5 8.44476C0.527855 5.33891 4.44847 1.94754 8.01393 1.94754C9.45005 1.9956 10.8422 2.45482 12.0251 3.27066L14.0028 1.30687C14.047 1.24241 14.1051 1.1887 14.1729 1.14971C14.2407 1.11071 14.3163 1.08742 14.3942 1.08155C14.4722 1.07568 14.5505 1.08739 14.6233 1.11581C14.6961 1.14423 14.7616 1.18863 14.815 1.24574C14.8684 1.30286 14.9083 1.37123 14.9317 1.44581C14.9551 1.52039 14.9615 1.59927 14.9504 1.67665C14.9393 1.75403 14.911 1.82793 14.8675 1.89289C14.824 1.95786 14.7665 2.01223 14.6992 2.052H14.7618ZM3.47354 11.8013L5.79248 9.49629C5.56152 9.02978 5.48283 8.50254 5.56749 7.98892C5.65216 7.4753 5.89591 7.00122 6.26438 6.63352C6.63285 6.26582 7.10744 6.02305 7.62124 5.93946C8.13503 5.85587 8.66211 5.93567 9.12813 6.1676L11.3008 4.00882C10.3185 3.37624 9.18183 3.02463 8.01393 2.99211C5.06824 2.99211 1.57242 5.9169 1.57242 8.43083C1.57242 9.46843 2.28273 10.7358 3.44568 11.8152L3.47354 11.8013ZM6.57939 8.70242L8.28552 6.99629C8.19512 6.98944 8.10433 6.98944 8.01393 6.99629C7.62608 6.99629 7.25411 7.15036 6.97986 7.42461C6.70561 7.69887 6.55153 8.07083 6.55153 8.45868C6.55245 8.54067 6.56178 8.62234 6.57939 8.70242Z" fill="#99A1B7"/>
</svg>
