<svg width="32" height="32" viewBox="0 0 32 32" fill="none" xmlns="http://www.w3.org/2000/svg">
<path opacity="0.1" d="M22.8043 30.6668H9.15458C7.07898 30.6632 5.08963 29.8361 3.62324 28.3672C2.15685 26.8983 1.33326 24.9075 1.33326 22.8319V9.18211C1.33147 8.15321 1.53235 7.13402 1.92444 6.18276C2.31652 5.23149 2.89214 4.36676 3.61841 3.63795C4.34469 2.90914 5.20741 2.33052 6.1573 1.93512C7.1072 1.53972 8.12567 1.33529 9.15458 1.3335H22.8043C24.8799 1.33711 26.8693 2.16418 28.3357 3.63312C29.8021 5.10207 30.6257 7.09286 30.6256 9.16846V22.8182C30.6274 23.8471 30.4266 24.8663 30.0345 25.8176C29.6424 26.7688 29.0668 27.6336 28.3405 28.3624C27.6142 29.0912 26.7515 29.6698 25.8016 30.0652C24.8517 30.4606 23.8332 30.665 22.8043 30.6668Z" fill="#04B440"/>
<path d="M22.8043 30.6668H9.15458C7.07898 30.6632 5.08963 29.8361 3.62324 28.3672C2.15685 26.8983 1.33326 24.9075 1.33326 22.8319V9.18211C1.33147 8.15321 1.53235 7.13403 1.92444 6.18276C2.31653 5.23149 2.89214 4.36676 3.61842 3.63795C4.34469 2.90914 5.20741 2.33052 6.1573 1.93512C7.1072 1.53972 8.12567 1.33529 9.15458 1.3335H22.8043C24.8799 1.33711 26.8693 2.16418 28.3357 3.63312C29.8021 5.10207 30.6257 7.09286 30.6256 9.16846V22.8182C30.6274 23.8471 30.4266 24.8663 30.0345 25.8176C29.6424 26.7688 29.0668 27.6336 28.3405 28.3624C27.6142 29.0912 26.7515 29.6698 25.8016 30.0652C24.8517 30.4606 23.8332 30.665 22.8043 30.6668ZM9.15458 3.38096C7.61964 3.38096 6.14756 3.99071 5.0622 5.07608C3.97683 6.16145 3.36708 7.63352 3.36708 9.16846V22.8182C3.36348 23.5805 3.51053 24.3361 3.79976 25.0414C4.089 25.7467 4.51474 26.3879 5.05251 26.9283C5.59029 27.4686 6.22952 27.8973 6.93347 28.1899C7.63743 28.4824 8.39225 28.633 9.15458 28.633H22.8043C24.3369 28.6294 25.8055 28.0181 26.8879 26.9331C27.9703 25.8481 28.5782 24.3781 28.5782 22.8455V9.19576C28.5818 8.43459 28.4352 7.68018 28.1468 6.97575C27.8584 6.27131 27.4339 5.63068 26.8976 5.09055C26.3612 4.55041 25.7236 4.12138 25.0212 3.82803C24.3189 3.53467 23.5655 3.38275 22.8043 3.38096H9.15458ZM24.8245 7.47589C24.5403 7.21021 24.2006 7.01112 23.8299 6.89307C23.4593 6.77503 23.067 6.74098 22.6815 6.7934C20.3893 7.19201 18.1853 7.99137 16.1706 9.15481C16.1136 9.19799 16.0441 9.22136 15.9726 9.22136C15.9012 9.22136 15.8317 9.19799 15.7747 9.15481C13.7542 8.00168 11.5373 7.2334 9.23647 6.88895C8.86079 6.83078 8.47691 6.85591 8.11202 6.96257C7.74713 7.06923 7.41015 7.25481 7.12494 7.50616C6.83973 7.75751 6.61326 8.06849 6.46158 8.41707C6.30989 8.76566 6.2367 9.14334 6.24718 9.52335V20.334C6.24021 20.946 6.45461 21.54 6.8509 22.0065C7.24719 22.4731 7.79869 22.7807 8.40384 22.8728C10.6581 23.2781 12.839 24.0189 14.8738 25.0704C15.2359 25.2067 15.6198 25.2761 16.0068 25.2752C16.4087 25.2834 16.8068 25.1944 17.167 25.0158C19.1813 23.9814 21.3465 23.272 23.5824 22.9138C24.1812 22.8076 24.7233 22.4932 25.113 22.0262C25.5026 21.5591 25.7146 20.9695 25.7117 20.3613V9.44145C25.7197 9.06114 25.643 8.68381 25.4872 8.33678C25.3314 7.98976 25.1003 7.68171 24.8109 7.43494L24.8245 7.47589ZM8.73143 20.7844C8.6085 20.7648 8.49673 20.7015 8.41654 20.6063C8.33635 20.5111 8.29308 20.3902 8.29464 20.2657V9.52335C8.29436 9.44325 8.31127 9.36403 8.34424 9.29103C8.37721 9.21803 8.42546 9.15296 8.48574 9.10021C8.58035 9.01842 8.70195 8.97465 8.82698 8.97736H8.90888C10.9621 9.27733 12.9425 9.95289 14.751 10.9702L14.9557 11.0521V22.7773C12.979 21.8388 10.8857 21.1686 8.73143 20.7844ZM23.6643 20.293C23.6669 20.4172 23.6261 20.5383 23.5488 20.6356C23.4715 20.7328 23.3627 20.7999 23.2411 20.8254C21.0831 21.1838 18.9843 21.8359 17.0032 22.7636V11.0521C17.0648 11.0305 17.1242 11.0031 17.1806 10.9702C18.98 9.92988 20.9482 9.21375 22.9954 8.85451C23.0802 8.84094 23.1669 8.84613 23.2495 8.86972C23.332 8.8933 23.4084 8.93471 23.4732 8.99101C23.5321 9.03898 23.5797 9.09929 23.6127 9.16769C23.6457 9.23609 23.6633 9.31091 23.6643 9.38685V20.293Z" fill="#04B440"/>
</svg>
