<svg width="32" height="32" viewBox="0 0 32 32" fill="none" xmlns="http://www.w3.org/2000/svg">
<path opacity="0.1" d="M15.9332 1.3999C13.0588 1.3999 10.2489 2.25227 7.85895 3.84921C5.46896 5.44615 3.60619 7.71595 2.50619 10.3716C1.4062 13.0272 1.11839 15.9494 1.67916 18.7685C2.23993 21.5877 3.6241 24.1773 5.65662 26.2098C7.68914 28.2424 10.2787 29.6265 13.0979 30.1873C15.9171 30.7481 18.8393 30.4603 21.4949 29.3603C24.1505 28.2603 26.4203 26.3975 28.0173 24.0075C29.6142 21.6175 30.4666 18.8077 30.4666 15.9332C30.463 12.0799 28.9307 8.38532 26.2059 5.66057C23.4811 2.93582 19.7866 1.40348 15.9332 1.3999Z" fill="#04B440"/>
<path d="M15.9317 30.6667C13.0339 30.6532 10.205 29.7816 7.80203 28.1618C5.39909 26.5421 3.52985 24.2468 2.43021 21.5656C1.33058 18.8845 1.04984 15.9377 1.62344 13.0971C2.19704 10.2566 3.59926 7.6496 5.65312 5.60524C7.70699 3.56089 10.3204 2.17078 13.1636 1.61037C16.0068 1.04996 18.9523 1.34436 21.6283 2.45643C24.3043 3.56849 26.5909 5.44837 28.1995 7.85879C29.8081 10.2692 30.6666 13.1021 30.6666 16C30.6649 17.9313 30.282 19.8433 29.54 21.6264C28.7981 23.4095 27.7116 25.0286 26.3428 26.3911C24.974 27.7536 23.3498 28.8326 21.5633 29.5663C19.7767 30.2999 17.863 30.6739 15.9317 30.6667ZM15.9317 3.37986C13.4357 3.37986 10.9957 4.12002 8.92034 5.50674C6.84496 6.89346 5.2274 8.86447 4.27221 11.1705C3.31702 13.4765 3.0671 16.014 3.55405 18.4621C4.041 20.9102 5.24296 23.1589 7.00792 24.9238C8.77288 26.6888 11.0216 27.8908 13.4697 28.3777C15.9177 28.8647 18.4552 28.6147 20.7613 27.6596C23.0673 26.7044 25.0383 25.0868 26.425 23.0114C27.8117 20.9361 28.5519 18.4961 28.5519 16C28.5483 12.6541 27.2175 9.44617 24.8516 7.08021C22.4856 4.71425 19.2777 3.38347 15.9317 3.37986ZM12.2889 20.9117L19.8474 13.3396C20.0844 13.1044 20.2183 12.7846 20.2196 12.4507C20.2208 12.1168 20.0894 11.7961 19.8542 11.5591C19.619 11.3221 19.2993 11.1882 18.9654 11.1869C18.6315 11.1857 18.3108 11.3171 18.0738 11.5523L11.3885 18.2376L7.29544 14.1445C7.0586 13.9617 6.76476 13.8684 6.46583 13.8812C6.1669 13.894 5.8821 14.012 5.66174 14.2144C5.44139 14.4168 5.29964 14.6906 5.26155 14.9874C5.22346 15.2841 5.29147 15.5848 5.45357 15.8363L10.5016 20.8844C10.7393 21.1202 11.0605 21.2525 11.3953 21.2525C11.7301 21.2525 12.0513 21.1202 12.2889 20.8844V20.9117ZM26.4099 11.7433C26.1722 11.5075 25.851 11.3752 25.5162 11.3752C25.1815 11.3752 24.8603 11.5075 24.6226 11.7433L17.951 18.4286L17.1051 17.5827L15.3178 19.3563L17.0232 21.0617C17.2585 21.2967 17.5775 21.4287 17.91 21.4287C18.2426 21.4287 18.5615 21.2967 18.7969 21.0617L26.369 13.4896C26.5982 13.2592 26.7302 12.9496 26.7378 12.6246C26.7454 12.2997 26.628 11.9842 26.4099 11.7433ZM12.0843 16.0955L13.8716 14.3082L13.7897 14.2264C13.5544 13.9914 13.2354 13.8595 12.9029 13.8595C12.5703 13.8595 12.2514 13.9914 12.0161 14.2264C11.7803 14.464 11.648 14.7853 11.648 15.12C11.648 15.4548 11.7803 15.776 12.0161 16.0137L12.0843 16.0955Z" fill="#04B440"/>
</svg>
