<svg width="33" height="32" viewBox="0 0 33 32" fill="none" xmlns="http://www.w3.org/2000/svg">
<path d="M18.3334 12.4849L16.0405 14.7778L14.6667 13.4023" stroke="#04B440" stroke-width="2.5" stroke-linecap="round" stroke-linejoin="round"/>
<path d="M13.2407 18.4442H19.7592" stroke="#04B440" stroke-width="2.5" stroke-linecap="round" stroke-linejoin="round"/>
<path fill-rule="evenodd" clip-rule="evenodd" d="M9.1665 10.5996C9.16694 9.87048 9.457 9.17138 9.97287 8.65612C10.4888 8.14085 11.1882 7.85162 11.9173 7.85205H21.0856C21.8146 7.85205 22.5137 8.14175 23.029 8.65737C23.5443 9.17299 23.8336 9.87226 23.8332 10.6012V22.8707C23.8332 23.0167 23.7991 23.1606 23.7338 23.2912C23.5025 23.741 22.9511 23.9195 22.5001 23.6904L21.7929 23.3352C21.536 23.2087 21.2349 23.2087 20.9781 23.3352L19.3566 24.15C19.0997 24.2764 18.7986 24.2764 18.5418 24.15L16.9121 23.3352C16.6554 23.2079 16.354 23.2079 16.0973 23.3352L14.4677 24.15C14.211 24.2772 13.9096 24.2772 13.6529 24.15L12.0232 23.3352C11.7665 23.2079 11.4651 23.2079 11.2084 23.3352L10.5012 23.6904C10.2185 23.8304 9.8836 23.8148 9.61517 23.6491C9.34674 23.4834 9.18269 23.1911 9.18117 22.8756V10.6012L9.1665 10.5996Z" stroke="#04B440" stroke-width="2.5" stroke-linecap="round" stroke-linejoin="round"/>
<circle cx="16.4999" cy="16.0002" r="14.6667" stroke="#04B440" stroke-width="2.5" stroke-linecap="round" stroke-linejoin="round"/>
<circle opacity="0.1" cx="16.4999" cy="16.0002" r="14.6667" fill="#04B440"/>
</svg>
