<svg width="32" height="32" viewBox="0 0 32 32" fill="none" xmlns="http://www.w3.org/2000/svg">
<path opacity="0.1" fill-rule="evenodd" clip-rule="evenodd" d="M15.3334 17.4669C16.7844 17.4669 18.2027 17.0365 19.4089 16.2302C20.6152 15.4238 21.5551 14.2777 22.1098 12.937C22.6644 11.5962 22.8089 10.1211 22.5249 8.69822C22.2409 7.27535 21.5412 5.9687 20.5143 4.94363C19.4874 3.91856 18.1795 3.22114 16.7562 2.93964C15.3328 2.65814 13.8579 2.8052 12.5182 3.36221C11.1784 3.91923 10.034 4.86116 9.22972 6.06881C8.42548 7.27646 7.99755 8.69555 8.00009 10.1465C8.00009 11.1089 8.18987 12.0619 8.55856 12.9509C8.92725 13.8399 9.46762 14.6475 10.1488 15.3274C10.8299 16.0073 11.6384 16.5463 12.528 16.9134C13.4177 17.2805 14.371 17.4686 15.3334 17.4669ZM20.662 26.8541C21.3984 27.3433 22.2633 27.6029 23.1473 27.6001C24.3296 27.5965 25.4621 27.1242 26.2968 26.287C27.1314 25.4497 27.6001 24.3157 27.6001 23.1335C27.6001 22.2495 27.3378 21.3853 26.8463 20.6505C26.3549 19.9156 25.6565 19.3432 24.8395 19.0055C24.0225 18.6678 23.1237 18.5802 22.2569 18.7537C21.3901 18.9272 20.5942 19.354 19.9701 19.98C19.346 20.6061 18.9217 21.4033 18.7509 22.2706C18.5801 23.138 18.6706 24.0365 19.0108 24.8525C19.351 25.6684 19.9256 26.365 20.662 26.8541ZM15.3235 18.5334C9.03555 18.5334 3.60262 22.6245 2.68178 28.0706C2.65919 28.1977 2.66209 28.328 2.69031 28.4539C2.71854 28.5799 2.77153 28.6989 2.8462 28.8042C2.92088 28.9095 3.01574 28.9989 3.12527 29.0671C3.23481 29.1354 3.35682 29.1812 3.48423 29.2019H3.65524H22.6667L17.3334 24.6668L18.0001 19.3335L15.3235 18.5334Z" fill="#04B440"/>
<path d="M15.3367 17.6366C16.8203 17.6366 18.2705 17.1965 19.5039 16.372C20.7372 15.5475 21.6983 14.3757 22.2654 13.0048C22.8326 11.6339 22.9803 10.1256 22.6899 8.6707C22.3995 7.21583 21.6841 5.87979 20.6341 4.83167C19.5841 3.78355 18.2468 3.07045 16.7915 2.78262C15.3361 2.49478 13.828 2.64515 12.4581 3.21469C11.0882 3.78423 9.91808 4.74735 9.09575 5.98216C8.27341 7.21697 7.83586 8.66796 7.83847 10.1515C7.83846 11.1356 8.03251 12.11 8.40949 13.019C8.78647 13.928 9.339 14.7537 10.0354 15.4489C10.7319 16.1442 11.5586 16.6952 12.4682 17.0706C13.3779 17.446 14.3526 17.6383 15.3367 17.6366ZM15.3367 4.62652C16.4294 4.62652 17.4977 4.95055 18.4062 5.55765C19.3148 6.16475 20.023 7.02764 20.4412 8.0372C20.8593 9.04676 20.9687 10.1577 20.7556 11.2294C20.5424 12.3012 20.0162 13.2856 19.2435 14.0583C18.4708 14.831 17.4863 15.3572 16.4146 15.5704C15.3428 15.7836 14.2319 15.6742 13.2224 15.256C12.2128 14.8378 11.3499 14.1297 10.7428 13.2211C10.1357 12.3125 9.81169 11.2443 9.81169 10.1515C9.81169 8.68621 10.3938 7.2809 11.4299 6.24476C12.4661 5.20861 13.8714 4.62652 15.3367 4.62652ZM23.1507 16.9657C22.3029 16.964 21.464 17.1385 20.6873 17.4782C19.9105 17.8179 19.2129 18.3153 18.6386 18.9389C17.5521 18.6822 16.4399 18.5498 15.3235 18.5443C9.03555 18.5443 3.60262 22.6354 2.68178 28.0815C2.65919 28.2086 2.66209 28.3389 2.69031 28.4649C2.71854 28.5908 2.77153 28.7099 2.8462 28.8151C2.92088 28.9204 3.01574 29.0098 3.12527 29.0781C3.23481 29.1463 3.35682 29.1922 3.48423 29.2128H3.65524C3.88686 29.2107 4.11055 29.1282 4.2881 28.9795C4.46565 28.8307 4.58604 28.6249 4.62869 28.3972C5.37852 23.8983 9.9827 20.5044 15.3235 20.5044C16.0381 20.5113 16.7509 20.5773 17.4546 20.7017C17.1159 21.4729 16.9412 22.3061 16.9416 23.1485C16.9416 24.3739 17.305 25.5718 17.9858 26.5907C18.6666 27.6097 19.6343 28.4038 20.7664 28.8728C21.8986 29.3417 23.1444 29.4644 24.3463 29.2253C25.5481 28.9863 26.6522 28.3962 27.5187 27.5296C28.3852 26.6631 28.9753 25.5591 29.2144 24.3572C29.4534 23.1553 29.3307 21.9096 28.8618 20.7774C28.3928 19.6452 27.5987 18.6776 26.5798 17.9968C25.5609 17.3159 24.3629 16.9526 23.1375 16.9526L23.1507 16.9657ZM23.1507 27.3843C22.3149 27.3869 21.4972 27.1415 20.8011 26.6791C20.1049 26.2167 19.5617 25.5581 19.24 24.7867C18.9184 24.0154 18.8329 23.1659 18.9943 22.3459C19.1558 21.5259 19.5569 20.7723 20.147 20.1804C20.737 19.5886 21.4894 19.1851 22.3088 19.0211C23.1283 18.8571 23.978 18.9399 24.7504 19.2591C25.5228 19.5783 26.183 20.1196 26.6476 20.8143C27.1122 21.509 27.3602 22.3259 27.3602 23.1616C27.3602 24.2793 26.9171 25.3514 26.128 26.1429C25.339 26.9344 24.2683 27.3808 23.1507 27.3843ZM25.7816 21.1226C25.9718 21.2797 26.0943 21.5039 26.1237 21.7488C26.1531 21.9937 26.0871 22.2405 25.9395 22.4381L23.7295 25.2664C23.6363 25.3833 23.5184 25.4782 23.3842 25.5441C23.25 25.6101 23.1028 25.6455 22.9533 25.6479C22.8054 25.6474 22.6595 25.6127 22.5272 25.5465C22.3948 25.4803 22.2795 25.3845 22.1904 25.2664L20.5855 23.2274C20.4424 23.0271 20.3805 22.7801 20.4122 22.536C20.4439 22.292 20.567 22.069 20.7565 21.9119C20.9541 21.7642 21.2009 21.6983 21.4458 21.7277C21.6907 21.757 21.9149 21.8796 22.072 22.0698L22.9007 23.1353L24.4004 21.2673C24.5627 21.0669 24.798 20.9391 25.0545 20.9119C25.311 20.8848 25.5678 20.9606 25.7685 21.1226H25.7816Z" fill="#04B440"/>
</svg>
