<svg width="90" height="50" viewBox="0 0 90 50" fill="none" xmlns="http://www.w3.org/2000/svg">
<path d="M25.0054 22.503V13.32H26.7465L31.1774 20.0091V13.32H32.8016V22.503H31.0994L26.6296 15.8528V22.503H25.0054Z" fill="black"/>
<path d="M36.7752 22.5939C36.4547 22.5939 36.1515 22.5506 35.8657 22.464C35.5798 22.3774 35.3243 22.2518 35.099 22.0873C34.8738 21.9141 34.6919 21.702 34.5533 21.4509C34.4234 21.1911 34.3584 20.888 34.3584 20.5417C34.3584 20.1001 34.445 19.7407 34.6183 19.4636C34.7915 19.1779 35.0254 18.9614 35.3199 18.8142C35.6231 18.667 35.9653 18.5674 36.3464 18.5154C36.7276 18.4548 37.1261 18.4245 37.5419 18.4245H38.8802C38.8802 18.1215 38.8326 17.8617 38.7373 17.6452C38.642 17.4201 38.4904 17.2426 38.2825 17.1127C38.0833 16.9828 37.8234 16.9178 37.5029 16.9178C37.295 16.9178 37.1001 16.9438 36.9182 16.9958C36.7449 17.0391 36.5933 17.1127 36.4634 17.2166C36.3421 17.3118 36.2555 17.4374 36.2035 17.5932H34.5793C34.6399 17.2382 34.7612 16.9352 34.9431 16.684C35.1337 16.4243 35.3632 16.2121 35.6318 16.0476C35.909 15.8831 36.2122 15.7618 36.5413 15.6839C36.8705 15.5973 37.204 15.554 37.5419 15.554C38.538 15.554 39.2614 15.8398 39.7118 16.4113C40.1709 16.9828 40.4005 17.7837 40.4005 18.8142V22.503H38.9971L38.9582 21.6197C38.7589 21.9141 38.5207 22.1306 38.2435 22.2692C37.9663 22.4077 37.6978 22.4943 37.4379 22.5289C37.178 22.5722 36.9571 22.5939 36.7752 22.5939ZM37.0871 21.308C37.4336 21.308 37.7411 21.2431 38.0096 21.1132C38.2782 20.9833 38.4904 20.8014 38.6463 20.5676C38.8109 20.3339 38.8932 20.0654 38.8932 19.7624V19.5415H37.6458C37.4379 19.5415 37.23 19.5502 37.0221 19.5675C36.8229 19.5762 36.641 19.6108 36.4764 19.6714C36.3118 19.7234 36.1775 19.8056 36.0736 19.9182C35.9783 20.0308 35.9306 20.191 35.9306 20.3988C35.9306 20.6066 35.9826 20.7755 36.0866 20.9054C36.1992 21.0352 36.3421 21.1348 36.5153 21.2041C36.6973 21.2734 36.8878 21.308 37.0871 21.308Z" fill="black"/>
<path d="M44.9025 22.503C44.3481 22.503 43.889 22.4294 43.5251 22.2821C43.17 22.1349 42.9014 21.8968 42.7195 21.5678C42.5463 21.2387 42.4597 20.7971 42.4597 20.2429V17.0607H41.4072V15.6579H42.4597V13.7486H44.0449V15.6579H45.6431V17.0607H44.0449V20.0351C44.0449 20.3815 44.1055 20.6456 44.2268 20.8274C44.3481 21.0093 44.6209 21.1002 45.0454 21.1002H45.5911V22.503H44.9025Z" fill="black"/>
<path d="M46.6977 22.503V15.6579H48.283V22.503H46.6977ZM47.4904 14.8656C47.1872 14.8656 46.9446 14.7747 46.7627 14.5929C46.5808 14.411 46.4898 14.1729 46.4898 13.8785C46.4898 13.5927 46.5851 13.3589 46.7757 13.1771C46.9663 12.9866 47.2045 12.8914 47.4904 12.8914C47.7676 12.8914 48.0058 12.9823 48.205 13.1641C48.4042 13.346 48.5039 13.5841 48.5039 13.8785C48.5039 14.1729 48.4086 14.411 48.218 14.5929C48.0274 14.7747 47.7849 14.8656 47.4904 14.8656Z" fill="black"/>
<path d="M51.5604 22.503L49.0786 15.6579H50.8328L52.6389 21.1521L54.432 15.6579H56.1732L53.6914 22.503H51.5604Z" fill="black"/>
<path d="M60.0298 22.5939C59.3195 22.5939 58.7131 22.4467 58.2107 22.1523C57.7169 21.8579 57.3401 21.4509 57.0802 20.9313C56.829 20.4031 56.7034 19.7927 56.7034 19.0999C56.7034 18.4072 56.8333 17.7967 57.0932 17.2685C57.3617 16.7317 57.7429 16.3117 58.2366 16.0086C58.7391 15.7056 59.3411 15.554 60.0428 15.554C60.5625 15.554 61.0173 15.6493 61.4071 15.8398C61.7969 16.0216 62.1218 16.2727 62.3816 16.5931C62.6502 16.9135 62.8494 17.2772 62.9793 17.6842C63.1093 18.0911 63.1699 18.5198 63.1613 18.97C63.1526 19.074 63.1439 19.1779 63.1353 19.2818C63.1266 19.377 63.1136 19.4809 63.0963 19.5935H58.2886C58.3146 19.8966 58.3926 20.1737 58.5225 20.4248C58.6611 20.6759 58.8517 20.875 59.0942 21.0223C59.3454 21.1695 59.6573 21.2431 60.0298 21.2431C60.2463 21.2431 60.4542 21.2171 60.6535 21.1651C60.8527 21.1045 61.026 21.0179 61.1732 20.9054C61.3291 20.7928 61.4331 20.6499 61.4851 20.4767H63.0703C62.9577 20.9703 62.7498 21.3729 62.4466 21.6847C62.1434 21.9964 61.7796 22.2259 61.3551 22.3731C60.9393 22.5203 60.4976 22.5939 60.0298 22.5939ZM58.3146 18.4115H61.615C61.615 18.1258 61.55 17.866 61.4201 17.6322C61.2902 17.3984 61.1039 17.2166 60.8614 17.0867C60.6275 16.9481 60.3416 16.8789 60.0038 16.8789C59.64 16.8789 59.3368 16.9525 59.0942 17.0997C58.8517 17.2469 58.6654 17.4374 58.5355 17.6712C58.4056 17.905 58.3319 18.1518 58.3146 18.4115Z" fill="black"/>
<path d="M66.506 22.503L63.1147 13.32H64.8818L67.6105 21.1262L70.3002 13.32H72.0543L68.689 22.503H66.506Z" fill="black"/>
<path d="M73.1861 22.503V13.32H76.6424C77.3354 13.32 77.9331 13.4282 78.4356 13.6447C78.9466 13.8525 79.3408 14.1859 79.618 14.6448C79.9038 15.1038 80.0468 15.7056 80.0468 16.4502C80.0468 17.1603 79.8908 17.7534 79.579 18.2297C79.2671 18.7059 78.8427 19.0653 78.3056 19.3077C77.7685 19.5415 77.1535 19.6584 76.4605 19.6584H74.8103V22.503H73.1861ZM74.8103 18.2037H76.4345C77.0322 18.2037 77.513 18.0608 77.8768 17.7751C78.2406 17.4893 78.4226 17.0391 78.4226 16.4243C78.4226 15.8874 78.271 15.4848 77.9678 15.2163C77.6646 14.9392 77.1968 14.8007 76.5645 14.8007H74.8103V18.2037Z" fill="black"/>
<path d="M81.5863 22.503V13.32H83.3275L87.7583 20.0091V13.32H89.3825V22.503H87.6804L83.2105 15.8528V22.503H81.5863Z" fill="black"/>
<path d="M27.2991 2.21936C32.6239 -0.231407 38.7785 -0.656951 44.277 0.964287C47.5783 1.92482 50.64 3.59556 53.1962 5.80313C54.9015 7.27341 56.3838 8.97917 57.5885 10.845C56.1924 9.11753 54.5682 7.59709 52.7814 6.33271C50.1019 4.43403 47.056 3.1174 43.9011 2.46673C38.6414 1.36708 33.0996 2.16625 28.463 4.60568C23.8134 7.02496 20.0983 11.0633 18.0818 15.8138C16.0433 20.5561 15.7147 25.9773 17.1494 30.9078C18.5617 35.8448 21.7278 40.2577 25.9793 43.1852C30.2165 46.1312 35.5118 47.5698 40.7355 47.1402C45.959 46.7347 51.0747 44.4588 54.9402 40.7262C57.2636 38.4949 59.1398 35.7581 60.396 32.7239C61.2347 30.702 61.7993 28.55 62.0605 26.3443C62.0349 28.5651 61.6892 30.7983 61.0292 32.951C60.0419 36.181 58.3408 39.226 56.0586 41.7976C52.2689 46.0987 46.8336 49.0173 41.0217 49.7798C35.2163 50.5748 29.0923 49.2012 24.1302 45.9411C19.1508 42.7095 15.3847 37.6222 13.748 31.8893C12.0791 26.1656 12.5564 19.8539 15.0489 14.4665C17.5116 9.06409 21.9625 4.63922 27.2991 2.21936Z" fill="black"/>
<path d="M6.30308 9.59408C6.54935 8.40385 7.46464 7.4566 8.48269 6.94944C10.2646 6.06222 12.2372 5.94853 14.1354 5.97526C15.7205 6.01247 17.2941 6.20284 18.8498 6.47384C17.2822 6.28439 15.705 6.17334 14.1356 6.21051C12.2604 6.26795 10.3202 6.48665 8.71504 7.37552C6.69576 8.35509 6.46413 10.8507 7.41691 12.7314C9.07277 16.2161 12.0939 18.9379 15.0992 21.4292C19.5547 25.0252 24.4723 28.0484 29.5539 30.7176C29.8615 30.8785 30.17 31.0381 30.4791 31.1961C35.5528 33.7826 40.818 36.0155 46.2469 37.7289C50.7205 39.1079 55.3424 40.2595 60.0065 40.2547C62.4427 40.1913 65.4614 39.8597 66.5444 37.5379C66.9757 36.5272 66.8272 35.334 66.4634 34.2663C65.9548 32.7905 65.091 31.4504 64.1382 30.1959C65.1552 31.4001 66.0904 32.6963 66.6846 34.1857C67.1069 35.2626 67.3426 36.5175 66.9092 37.6819C65.7527 40.3832 62.5252 40.7829 60.0279 40.9482C55.2153 41.1181 50.4979 40.0675 45.9338 38.7567C40.398 37.1244 35.0484 34.915 29.9143 32.2978C29.6015 32.1379 29.2895 31.9763 28.9784 31.8131C23.8387 29.1055 18.8897 25.9916 14.4268 22.2379C11.4162 19.6277 8.39969 16.805 6.74217 13.0141C6.32245 11.9602 6.04237 10.7732 6.30308 9.59408Z" fill="black"/>
<path d="M1.09749 13.1387C0.0177929 10.594 0.743573 6.84524 3.45384 5.59041C5.50291 4.46809 7.79346 4.23381 9.99938 4.20176C11.8255 4.19022 13.6382 4.36858 15.4294 4.64952C13.6224 4.50248 11.8089 4.45419 10.015 4.58627C7.85257 4.75689 5.63654 5.15627 3.86622 6.27343C1.57801 7.58338 1.22092 10.4183 2.2437 12.7205C3.93685 16.717 7.28201 19.9275 10.6473 22.8185C15.5632 26.9385 21.0556 30.3828 26.7488 33.3945C27.0831 33.5706 27.4184 33.745 27.7544 33.9178C33.4436 36.8348 39.3686 39.3223 45.4819 41.1765C50.5486 42.6766 55.8008 43.8799 61.0421 43.7026C63.93 43.5515 67.3406 42.9239 68.5926 40.236C69.1325 39.0323 69.0479 37.5914 68.6719 36.2686C68.1823 34.5543 67.2808 32.9633 66.2571 31.4721C67.3889 32.8846 68.4114 34.4113 69.0392 36.1521C69.5175 37.4933 69.7385 39.0432 69.2029 40.4818C67.8857 43.7369 64.1224 44.5475 61.1241 44.8626C55.6325 45.3128 50.2149 44.2688 44.9925 42.8756C38.6957 41.1469 32.6237 38.691 26.8258 35.7184C26.4833 35.5424 26.1418 35.3643 25.8013 35.1843C20.0032 32.1048 14.4481 28.5087 9.5091 24.1257C6.12935 21.0356 2.77586 17.644 1.09749 13.1387Z" fill="black"/>
</svg>
