<svg width="40" height="30" viewBox="0 0 40 30" fill="none" xmlns="http://www.w3.org/2000/svg">
<path d="M15.6116 1.77397C18.7474 0.351108 22.3718 0.104046 25.6099 1.0453C27.554 1.60297 29.3571 2.57296 30.8624 3.85463C31.8667 4.70825 32.7396 5.69857 33.4491 6.78186C32.6269 5.7789 31.6704 4.89617 30.6182 4.16209C29.0402 3.05976 27.2465 2.29535 25.3885 1.91759C22.2911 1.27916 19.0275 1.74314 16.297 3.15942C13.5588 4.564 11.371 6.9086 10.1835 9.66664C8.98298 12.4199 8.78946 15.5674 9.63438 18.4299C10.4661 21.2962 12.3306 23.8582 14.8343 25.5578C17.3296 27.2683 20.448 28.1035 23.5243 27.8541C26.6004 27.6187 29.6131 26.2973 31.8895 24.1302C33.2577 22.8348 34.3626 21.2459 35.1024 19.4842C35.5963 18.3104 35.9288 17.061 36.0826 15.7804C36.0676 17.0698 35.864 18.3663 35.4753 19.6161C34.8939 21.4914 33.8921 23.2592 32.5481 24.7522C30.3164 27.2494 27.1155 28.9439 23.6928 29.3866C20.274 29.8481 16.6676 29.0506 13.7454 27.1579C10.813 25.2817 8.59513 22.3281 7.63127 18.9997C6.64846 15.6766 6.92951 12.0122 8.39737 8.88437C9.84764 5.74787 12.4688 3.17889 15.6116 1.77397Z" fill="black"/>
<path d="M3.30081 6.05559C3.44379 5.36457 3.97518 4.81462 4.56624 4.52017C5.6008 4.00507 6.74605 3.93907 7.84806 3.95459C8.76838 3.97619 9.68198 4.08671 10.5852 4.24405C9.67507 4.13406 8.75938 4.06959 7.8482 4.09117C6.7595 4.12451 5.63307 4.25149 4.70114 4.76754C3.52879 5.33626 3.39431 6.78519 3.94747 7.87707C4.90883 9.90022 6.66286 11.4804 8.40765 12.9268C10.9944 15.0145 13.8494 16.7698 16.7998 18.3195C16.9783 18.4129 17.1574 18.5055 17.3369 18.5973C20.2826 20.0989 23.3395 21.3953 26.4913 22.3901C29.0886 23.1907 31.772 23.8593 34.4798 23.8565C35.8943 23.8197 37.6469 23.6272 38.2756 22.2792C38.5261 21.6924 38.4398 20.9996 38.2286 20.3798C37.9333 19.5229 37.4318 18.7449 36.8786 18.0166C37.4691 18.7157 38.0121 19.4683 38.357 20.333C38.6022 20.9582 38.739 21.6867 38.4874 22.3628C37.816 23.9311 35.9422 24.1631 34.4923 24.2591C31.6982 24.3577 28.9594 23.7478 26.3096 22.9868C23.0956 22.0391 19.9897 20.7564 17.009 19.2369C16.8274 19.1441 16.6462 19.0502 16.4656 18.9555C13.4816 17.3835 10.6083 15.5757 8.01727 13.3963C6.26938 11.8809 4.51805 10.2421 3.55573 8.04116C3.31205 7.42931 3.14944 6.74019 3.30081 6.05559Z" fill="black"/>
<path d="M0.278553 8.11355C-0.348299 6.63611 0.0730738 4.45967 1.6466 3.73115C2.83624 3.07955 4.16608 2.94354 5.4468 2.92493C6.50703 2.91823 7.55939 3.02178 8.59933 3.18489C7.55025 3.09952 6.49735 3.07148 5.45586 3.14817C4.2004 3.24723 2.91383 3.47909 1.88602 4.1277C0.557528 4.88822 0.350212 6.53412 0.944014 7.87075C1.92702 10.191 3.86915 12.055 5.82297 13.7334C8.67704 16.1254 11.8658 18.1251 15.1711 19.8736C15.3652 19.9758 15.5599 20.0771 15.755 20.1774C19.058 21.871 22.4979 23.3152 26.0472 24.3917C28.9888 25.2626 32.0381 25.9612 35.0811 25.8583C36.7578 25.7705 38.7379 25.4062 39.4648 23.8457C39.7783 23.1468 39.7291 22.3102 39.5108 21.5423C39.2265 20.5469 38.7032 19.6233 38.1088 18.7575C38.766 19.5776 39.3596 20.464 39.7241 21.4746C40.0017 22.2533 40.13 23.1531 39.8191 23.9883C39.0544 25.8782 36.8694 26.3488 35.1287 26.5318C31.9404 26.7931 28.7951 26.187 25.7631 25.3781C22.1072 24.3745 18.582 22.9486 15.2159 21.2228C15.017 21.1206 14.8187 21.0172 14.6211 20.9127C11.2548 19.1248 8.02961 17.037 5.16215 14.4923C3.19994 12.6983 1.25298 10.7292 0.278553 8.11355Z" fill="black"/>
</svg>
